<?xml version="1.0" standalone="no"?>
<!DOCTYPE svg PUBLIC "-//W3C//DTD SVG 20010904//EN"
 "http://www.w3.org/TR/2001/REC-SVG-20010904/DTD/svg10.dtd">
<svg version="1.0" xmlns="http://www.w3.org/2000/svg"
 width="64.000000pt" height="64.000000pt" viewBox="0 0 64.000000 64.000000"
 preserveAspectRatio="xMidYMid meet">

<g transform="translate(0.000000,64.000000) scale(0.100000,-0.100000)"
fill="#000000" stroke="none">
<path d="M193 554 c-53 -29 -64 -41 -72 -72 -6 -20 -26 -102 -46 -181 l-36
-145 23 -18 c101 -80 271 -118 349 -77 9 5 35 2 64 -6 26 -8 67 -15 89 -14
l41 1 -45 12 c-52 15 -94 35 -87 43 3 3 21 0 39 -5 18 -6 45 -13 61 -16 l27
-6 0 112 c0 105 -1 114 -22 127 -54 34 -118 32 -159 -5 -17 -15 -17 -19 -4
-45 9 -17 11 -30 5 -34 -5 -3 -16 8 -25 25 -16 31 -61 60 -94 60 -33 0 -71
-22 -71 -41 0 -9 -7 -20 -16 -23 -29 -11 -37 -6 -20 13 16 17 16 27 6 98 -6
43 -13 86 -16 96 -3 10 0 17 9 17 8 0 26 6 40 13 19 10 23 17 16 24 -12 12 -4
33 11 33 4 0 11 -11 14 -25 4 -14 11 -23 16 -20 6 4 3 16 -6 30 -15 24 -12 45
7 45 5 0 9 -9 9 -19 0 -22 16 -36 24 -22 8 13 -33 61 -52 61 -9 0 -45 -16 -79
-36z m331 -250 c9 -3 16 -12 16 -19 0 -11 -6 -11 -30 -2 -26 10 -32 8 -55 -13
-20 -19 -25 -20 -25 -7 0 32 55 56 94 41z m-321 -194 c37 -22 96 -28 167 -16
40 6 43 5 27 -7 -26 -22 -100 -30 -149 -17 -48 13 -88 36 -88 50 0 14 4 13 43
-10z"/>
</g>
</svg>
