<?xml version="1.0" standalone="no"?>
<!DOCTYPE svg PUBLIC "-//W3C//DTD SVG 20010904//EN"
 "http://www.w3.org/TR/2001/REC-SVG-20010904/DTD/svg10.dtd">
<svg version="1.0" xmlns="http://www.w3.org/2000/svg"
 width="64.000000pt" height="64.000000pt" viewBox="0 0 64.000000 64.000000"
 preserveAspectRatio="xMidYMid meet">

<g transform="translate(0.000000,64.000000) scale(0.100000,-0.100000)"
fill="#000000" stroke="none">
<path d="M435 621 c-62 -37 -82 -108 -49 -172 8 -17 14 -32 12 -33 -2 -1 -11
-8 -20 -15 -15 -11 -22 -9 -50 22 -104 109 -271 -12 -202 -146 16 -29 16 -32
-1 -42 -64 -37 -125 -117 -125 -165 0 -12 11 -32 25 -45 23 -24 29 -25 153
-25 101 0 131 3 135 14 11 29 -17 36 -135 36 -131 0 -141 5 -115 57 45 85 154
125 244 88 19 -8 44 -15 54 -15 28 0 23 29 -9 47 l-28 16 26 50 c16 32 38 57
60 68 43 24 118 24 164 3 59 -28 91 1 38 34 l-29 17 19 30 c37 62 11 147 -56
179 -44 21 -74 20 -111 -3z m94 -46 c88 -45 24 -168 -67 -130 -54 23 -55 105
-2 132 32 16 35 16 69 -2z m-259 -170 c55 -28 52 -105 -4 -131 -30 -15 -35
-15 -64 0 -53 28 -56 102 -4 130 34 19 37 19 72 1z"/>
<path d="M498 188 c-3 -42 -4 -43 -43 -46 -71 -6 -65 -52 6 -52 39 0 39 0 39
-40 0 -28 5 -43 16 -47 21 -8 34 13 34 55 0 30 2 32 34 32 35 0 63 21 51 40
-3 5 -24 10 -46 10 -36 0 -39 2 -39 29 0 42 -9 61 -30 61 -15 0 -20 -9 -22
-42z"/>
</g>
</svg>
