<?xml version="1.0" standalone="no"?>
<!DOCTYPE svg PUBLIC "-//W3C//DTD SVG 20010904//EN"
 "http://www.w3.org/TR/2001/REC-SVG-20010904/DTD/svg10.dtd">
<svg version="1.0" xmlns="http://www.w3.org/2000/svg"
 width="64.000000pt" height="64.000000pt" viewBox="0 0 64.000000 64.000000"
 preserveAspectRatio="xMidYMid meet">

<g transform="translate(0.000000,64.000000) scale(0.100000,-0.100000)"
fill="#000000" stroke="none">
<path d="M290 600 c-16 -31 -26 -40 -46 -40 -14 0 -34 -5 -46 -11 -20 -11 -19
-12 11 -43 28 -29 31 -37 25 -73 -8 -50 4 -59 50 -36 34 16 38 16 72 0 46 -22
56 -15 49 36 -6 37 -3 45 19 66 41 39 30 61 -30 61 -18 0 -29 10 -44 40 -11
22 -25 40 -30 40 -5 0 -19 -18 -30 -40z m71 -70 c25 0 32 -15 14 -30 -8 -7
-15 -22 -15 -34 0 -18 -6 -21 -43 -21 -37 0 -43 3 -39 18 2 10 -3 26 -13 37
-17 19 -17 20 9 30 15 5 29 17 33 27 6 15 8 14 21 -5 8 -12 23 -22 33 -22z"/>
<path d="M222 330 c-13 -6 -28 -22 -34 -37 -10 -27 -14 -28 -78 -28 -104 0
-111 -10 -108 -149 l3 -111 315 0 315 0 3 81 c2 68 0 85 -17 105 -17 21 -27
24 -89 24 l-70 0 -5 44 c-7 66 -23 76 -125 78 -48 2 -98 -2 -110 -7z m186 -42
c8 -8 12 -52 12 -130 l0 -118 -100 0 -100 0 0 124 c0 90 3 126 13 129 26 11
163 7 175 -5z m-240 -70 c7 -7 12 -44 12 -95 l0 -83 -70 0 -70 0 0 89 c0 62 4
91 13 94 24 10 103 7 115 -5z m420 -50 c7 -7 12 -38 12 -70 l0 -58 -70 0 -70
0 0 58 c0 32 5 63 12 70 16 16 100 16 116 0z"/>
</g>
</svg>
