<?xml version="1.0" standalone="no"?>
<!DOCTYPE svg PUBLIC "-//W3C//DTD SVG 20010904//EN"
 "http://www.w3.org/TR/2001/REC-SVG-20010904/DTD/svg10.dtd">
<svg version="1.0" xmlns="http://www.w3.org/2000/svg"
 width="64.000000pt" height="64.000000pt" viewBox="0 0 64.000000 64.000000"
 preserveAspectRatio="xMidYMid meet">

<g transform="translate(0.000000,64.000000) scale(0.100000,-0.100000)"
fill="#000000" stroke="none">
<path d="M411 573 c-34 -37 -61 -73 -61 -78 0 -17 22 -35 42 -35 17 0 18 -15
18 -220 0 -245 -2 -240 74 -240 64 0 66 7 66 246 0 199 1 214 18 214 20 0 42
18 42 35 0 13 -118 145 -130 145 -5 0 -36 -30 -69 -67z m113 -32 c37 -38 38
-39 15 -43 l-24 -3 -3 -227 -2 -228 -30 0 -30 0 -2 228 -3 227 -24 3 c-23 4
-22 5 15 43 21 21 41 39 44 39 3 0 23 -18 44 -39z"/>
<path d="M232 388 c-8 -8 -12 -65 -12 -190 0 -198 0 -198 74 -198 62 0 66 11
66 196 0 95 -4 174 -10 185 -8 15 -21 19 -58 19 -27 0 -53 -5 -60 -12z m88
-188 l0 -160 -30 0 -30 0 0 160 0 160 30 0 30 0 0 -160z"/>
<path d="M42 288 c-8 -8 -12 -54 -12 -140 0 -142 3 -148 74 -148 59 0 66 16
66 146 0 142 -5 154 -68 154 -27 0 -53 -5 -60 -12z m88 -138 l0 -110 -30 0
-30 0 0 110 0 110 30 0 30 0 0 -110z"/>
</g>
</svg>
