<?xml version="1.0" standalone="no"?>
<!DOCTYPE svg PUBLIC "-//W3C//DTD SVG 20010904//EN"
 "http://www.w3.org/TR/2001/REC-SVG-20010904/DTD/svg10.dtd">
<svg version="1.0" xmlns="http://www.w3.org/2000/svg"
 width="554.000000pt" height="554.000000pt" viewBox="0 0 554.000000 554.000000"
 preserveAspectRatio="xMidYMid meet">

<g transform="translate(0.000000,554.000000) scale(0.100000,-0.100000)"
fill="#000000" stroke="none">
<path d="M3326 5514 c-133 -32 -274 -138 -333 -249 l-27 -53 -44 34 c-87 66
-224 114 -327 114 -63 0 -173 -27 -239 -58 -119 -56 -226 -181 -266 -310 -25
-79 -27 -222 -5 -307 35 -133 51 -152 482 -585 222 -222 403 -407 403 -410 0
-3 -253 -258 -563 -568 l-563 -563 -394 397 c-239 239 -418 412 -454 435 -150
98 -364 106 -537 18 -81 -40 -185 -144 -222 -221 -91 -189 -73 -405 46 -561
21 -26 37 -51 37 -55 -1 -4 -23 -18 -50 -31 -106 -51 -211 -188 -245 -316 -19
-74 -19 -213 0 -284 32 -122 55 -153 302 -401 128 -130 233 -240 233 -244 0
-5 -25 -35 -55 -68 -66 -71 -119 -178 -136 -271 -25 -150 31 -320 145 -432
204 -202 504 -207 712 -12 l65 60 237 -235 c240 -239 267 -260 381 -299 160
-55 368 -15 501 96 51 43 127 139 136 173 3 12 8 22 10 22 2 0 24 -15 48 -34
139 -106 321 -137 488 -83 98 31 162 72 232 147 155 169 178 444 53 645 -17
28 -205 226 -419 440 l-388 390 568 568 568 568 395 -399 c415 -420 441 -443
568 -482 137 -43 330 -18 451 60 255 164 315 526 127 771 l-33 44 59 35 c237
139 323 439 200 698 -22 46 -75 106 -265 297 -131 133 -238 245 -238 249 0 5
25 36 56 69 192 207 186 509 -12 704 -201 197 -509 201 -706 7 -31 -29 -60
-54 -64 -54 -4 0 -116 107 -248 238 -192 189 -253 243 -298 265 -115 55 -252
70 -372 41z m190 -329 c46 -14 103 -68 846 -812 438 -439 804 -813 813 -831
19 -39 22 -114 5 -157 -14 -37 -55 -82 -94 -102 -32 -17 -105 -22 -151 -10
-22 6 -257 235 -833 810 -442 441 -809 813 -816 827 -21 41 -28 97 -16 141 14
52 73 116 125 134 51 18 61 18 121 0z m-832 -185 c59 -28 2299 -2271 2321
-2322 39 -96 0 -209 -90 -256 -42 -21 -132 -20 -175 2 -19 10 -542 525 -1163
1145 -1160 1158 -1177 1176 -1177 1250 0 75 53 160 115 187 45 20 122 17 169
-6z m2066 -199 c43 -21 80 -89 80 -145 0 -49 -30 -112 -70 -151 l-31 -29 -122
122 -122 122 46 46 c66 66 135 77 219 35z m-1405 -1471 l120 -120 -568 -567
-567 -568 -120 120 c-66 66 -119 123 -118 126 7 17 1112 1129 1122 1129 6 0
65 -54 131 -120z m-2579 -205 c46 -14 121 -87 1201 -1167 1130 -1131 1151
-1154 1161 -1202 34 -165 -128 -293 -274 -218 -24 13 -493 475 -1181 1164
-1120 1121 -1141 1144 -1151 1192 -21 102 34 202 128 231 58 18 58 18 116 0z
m-148 -870 c44 -19 1576 -1542 1623 -1614 32 -49 39 -123 18 -178 -13 -35 -55
-80 -94 -101 -39 -20 -131 -20 -170 1 -16 8 -391 377 -832 819 -830 832 -823
824 -823 898 0 64 56 149 114 175 42 18 119 18 164 0z m320 -1328 l122 -123
-32 -31 c-54 -51 -93 -66 -160 -61 -161 12 -214 186 -95 316 11 12 25 22 31
22 6 0 66 -55 134 -123z"/>
</g>
</svg>
