<?xml version="1.0" standalone="no"?>
<!DOCTYPE svg PUBLIC "-//W3C//DTD SVG 20010904//EN"
 "http://www.w3.org/TR/2001/REC-SVG-20010904/DTD/svg10.dtd">
<svg version="1.0" xmlns="http://www.w3.org/2000/svg"
 width="64.000000pt" height="64.000000pt" viewBox="0 0 64.000000 64.000000"
 preserveAspectRatio="xMidYMid meet">

<g transform="translate(0.000000,64.000000) scale(0.100000,-0.100000)"
fill="#000000" stroke="none">
<path d="M223 622 c-109 -39 -178 -112 -210 -221 -29 -102 4 -228 82 -306 122
-121 328 -121 450 0 91 92 118 241 64 356 -69 146 -241 223 -386 171z m77 -86
l0 -64 -42 5 c-24 3 -45 7 -47 9 -7 6 31 103 42 108 40 16 47 8 47 -58z m84
58 c13 -5 53 -101 45 -108 -2 -2 -23 -6 -46 -9 l-43 -5 0 64 c0 66 5 73 44 58z
m-200 -62 c-7 -32 -25 -40 -52 -23 -10 6 -6 15 19 35 17 15 33 25 35 23 2 -2
1 -18 -2 -35z m320 -1 c18 -20 18 -20 -8 -27 -32 -8 -32 -8 -41 34 -6 31 -5
33 12 24 10 -6 27 -19 37 -31z m-369 -63 c20 -9 25 -18 25 -47 0 -74 -6 -81
-67 -81 l-55 0 7 36 c9 49 36 104 51 104 7 0 25 -5 39 -12z m438 -22 c8 -19
19 -50 22 -70 l7 -36 -55 0 c-61 0 -67 7 -67 81 0 27 5 38 23 47 37 18 53 13
70 -22z m-307 -6 l34 0 0 -50 0 -50 -55 0 c-61 0 -61 0 -48 73 4 28 10 37 20
33 8 -4 30 -6 49 -6z m178 -27 c12 -73 12 -73 -49 -73 l-55 0 0 49 0 50 43 4
c23 2 45 4 48 5 4 1 9 -15 13 -35z m-290 -135 c3 -13 6 -39 6 -59 0 -29 -5
-38 -25 -47 -14 -7 -32 -12 -39 -12 -15 0 -42 55 -51 104 l-7 36 55 0 c48 0
55 -3 61 -22z m146 -27 l0 -49 -47 -4 c-27 -3 -49 -4 -50 -4 -1 1 -5 25 -9 54
l-7 52 57 0 56 0 0 -49z m146 -3 c-4 -29 -8 -53 -9 -54 -1 0 -23 1 -49 4 l-48
4 0 49 0 49 56 0 57 0 -7 -52z m149 16 c-9 -49 -36 -104 -51 -104 -7 0 -25 5
-39 12 -20 9 -25 18 -25 47 0 74 6 81 67 81 l55 0 -7 -36z m-295 -159 c0 -55
-3 -65 -17 -65 -29 0 -42 13 -58 59 -20 59 -20 59 23 64 20 2 40 4 45 5 4 1 7
-27 7 -63z m129 49 c8 -7 -32 -103 -45 -108 -39 -15 -44 -8 -44 58 l0 64 43
-5 c23 -3 44 -7 46 -9z m-245 -46 c3 -17 4 -33 2 -35 -2 -2 -18 8 -35 23 -25
20 -29 29 -19 35 27 17 45 9 52 -23z m324 23 c10 -6 6 -15 -19 -35 -17 -15
-33 -25 -35 -23 -2 2 -1 18 2 35 7 32 25 40 52 23z"/>
</g>
</svg>
