<?xml version="1.0" standalone="no"?>
<!DOCTYPE svg PUBLIC "-//W3C//DTD SVG 20010904//EN"
 "http://www.w3.org/TR/2001/REC-SVG-20010904/DTD/svg10.dtd">
<svg version="1.0" xmlns="http://www.w3.org/2000/svg"
 width="2728.000000pt" height="436.000000pt" viewBox="0 0 2728.000000 436.000000"
 preserveAspectRatio="xMidYMid meet">

<g transform="translate(0.000000,436.000000) scale(0.100000,-0.100000)"
fill="#000000" stroke="none">
<path d="M2493 4320 c-40 -11 -83 -24 -95 -31 -35 -18 -108 -79 -108 -90 0
-22 -52 -89 -69 -89 -10 0 -34 16 -54 35 -29 28 -51 38 -108 50 -39 8 -75 18
-80 21 -5 3 -24 1 -42 -4 -17 -6 -53 -13 -78 -17 -92 -12 -188 -94 -247 -210
-44 -88 -34 -254 22 -348 13 -21 151 -167 308 -325 156 -158 288 -293 292
-300 9 -15 -804 -832 -828 -832 -13 0 -134 119 -448 442 -71 73 -127 122 -151
132 -21 9 -46 25 -56 38 -28 34 -165 50 -251 28 -158 -39 -258 -140 -288 -292
-15 -76 -15 -85 2 -150 18 -69 37 -115 53 -127 11 -8 46 -72 41 -75 -1 -2 -29
-17 -61 -35 -114 -65 -186 -224 -166 -369 16 -112 66 -186 248 -367 88 -88
141 -147 141 -160 0 -11 -13 -33 -29 -48 -17 -15 -45 -53 -62 -85 -31 -54 -33
-62 -33 -162 l-1 -105 44 -70 c24 -38 50 -74 57 -78 8 -5 22 -16 32 -26 34
-35 108 -70 173 -81 60 -10 74 -9 140 10 41 12 87 33 103 47 16 13 52 36 79
50 49 24 51 25 64 7 39 -54 283 -288 313 -300 19 -8 44 -24 56 -34 51 -49 249
-50 333 -3 25 15 59 33 75 41 16 8 36 28 45 45 9 17 30 46 47 66 31 34 33 35
60 21 16 -8 31 -17 34 -20 28 -28 82 -53 132 -61 62 -10 144 -4 154 12 7 12
42 11 46 -1 3 -10 28 5 67 40 9 8 28 21 43 28 30 16 90 93 106 137 15 43 32
130 32 168 -1 35 -35 142 -64 197 -11 19 -144 161 -297 314 -154 154 -279 285
-279 292 0 13 774 793 812 818 24 16 26 14 314 -275 312 -313 339 -334 461
-358 36 -7 84 -9 115 -5 47 6 130 39 162 65 6 5 25 20 43 34 41 33 90 119 103
181 20 95 23 136 11 144 -10 6 -15 29 -20 102 -1 3 -17 25 -36 48 -50 59 -46
77 26 124 73 47 125 126 151 228 16 64 16 75 2 136 -8 37 -16 74 -17 82 -5 34
-78 123 -218 266 -143 144 -168 181 -139 199 6 3 28 33 51 66 47 69 74 176 65
249 -9 64 -70 182 -117 224 -21 20 -44 36 -49 36 -6 0 -28 12 -50 26 -37 24
-50 27 -143 28 -117 1 -160 -14 -240 -84 -25 -22 -54 -40 -64 -40 -11 0 -73
55 -148 131 -146 148 -241 225 -294 238 -144 36 -132 35 -228 11z m760 -823
c523 -523 597 -601 607 -638 14 -51 3 -83 -43 -126 -72 -67 -137 -64 -222 10
-28 23 -294 287 -592 586 -583 583 -573 571 -554 654 19 83 70 120 157 114
l51 -3 596 -597z m-1207 449 c12 -11 391 -390 844 -841 481 -480 828 -833 836
-852 20 -46 18 -70 -11 -120 -45 -75 -128 -97 -202 -53 -33 20 -384 359 -492
474 -20 22 -47 49 -60 60 -27 24 -547 543 -603 602 -20 21 -90 91 -155 156
-259 255 -380 386 -388 421 -11 41 21 133 53 156 51 36 141 34 178 -3z m1487
-126 c19 -11 39 -32 45 -46 20 -42 15 -107 -10 -144 -45 -65 -49 -64 -145 32
-82 83 -86 88 -74 111 15 29 85 67 123 67 15 0 42 -9 61 -20z m-1027 -1071
c44 -44 80 -86 82 -92 3 -13 -818 -837 -833 -837 -10 0 -155 144 -168 167 -8
13 8 63 20 63 5 0 182 173 393 385 212 211 392 386 400 389 8 2 18 4 21 5 4 0
42 -35 85 -80z m-1853 -161 c23 -14 90 -75 277 -258 65 -63 149 -145 186 -182
38 -36 124 -122 192 -191 68 -69 140 -140 160 -159 139 -131 854 -864 866
-890 9 -17 16 -56 16 -88 0 -67 -23 -99 -91 -129 -48 -22 -83 -16 -138 24 -30
21 -343 325 -335 325 1 0 -31 33 -72 72 -42 40 -102 101 -136 135 -33 34 -105
106 -160 160 -55 54 -110 109 -122 122 -24 26 -229 231 -285 285 -20 19 -67
66 -105 105 -38 39 -73 71 -79 71 -6 0 -8 2 -6 5 3 2 -82 92 -188 198 l-192
194 3 67 c3 83 25 116 87 132 59 16 95 16 122 2z m-125 -633 c41 -22 1180
-1168 1192 -1199 24 -65 1 -130 -64 -180 -76 -57 -135 -27 -339 174 -292 287
-869 864 -927 928 -81 90 -97 161 -52 231 37 56 130 79 190 46z m223 -967 l91
-92 -41 -38 c-35 -33 -47 -38 -87 -38 -26 0 -59 8 -76 18 -42 24 -71 83 -62
127 7 37 57 115 74 115 5 0 51 -41 101 -92z"/>
<path d="M20074 4130 c-115 -57 -169 -144 -168 -270 1 -122 53 -208 159 -264
85 -44 202 -33 281 27 47 36 82 83 102 136 19 53 18 160 -1 196 -9 17 -17 36
-17 42 0 26 -114 129 -156 141 -64 19 -153 15 -200 -8z"/>
<path d="M6575 4098 c-3 -7 -34 -96 -69 -198 -35 -102 -90 -257 -121 -345 -31
-88 -59 -169 -62 -180 -3 -11 -16 -48 -30 -83 -13 -34 -21 -67 -18 -71 3 -5 1
-11 -4 -13 -16 -6 -234 -618 -233 -656 0 -13 -3 -21 -6 -17 -10 10 -42 -94
-35 -113 3 -9 2 -14 -2 -9 -11 9 -67 -142 -58 -156 3 -6 1 -7 -5 -3 -7 4 -12
1 -12 -6 0 -7 -11 -42 -24 -78 -74 -198 -104 -293 -99 -307 4 -11 2 -14 -5 -9
-11 7 -16 -11 -15 -51 1 -7 -3 -10 -8 -7 -9 5 -14 -16 -11 -49 1 -10 -2 -16
-7 -13 -11 7 -43 -93 -34 -107 3 -5 2 -7 -4 -4 -5 3 -15 -11 -22 -31 -7 -20
-44 -123 -82 -228 -38 -105 -69 -195 -69 -199 0 -10 -68 -184 -80 -207 -6 -10
-10 -20 -10 -23 0 -3 112 -5 250 -5 l250 0 6 28 c3 15 22 72 41 127 46 128 83
244 83 261 0 7 3 14 8 16 4 2 22 48 41 103 18 55 52 150 76 210 24 61 51 135
61 165 9 30 26 74 36 97 10 24 18 48 18 55 0 7 6 25 14 39 7 14 19 49 26 78 6
28 16 51 20 51 4 0 11 17 15 38 4 20 15 55 25 77 19 43 34 95 32 108 -1 4 2 7
8 7 5 0 12 16 16 37 4 20 13 48 20 62 8 14 14 32 14 39 0 7 9 31 19 53 11 22
23 54 26 72 4 18 13 43 21 57 7 14 23 52 35 85 11 33 36 103 55 155 19 52 42
120 51 150 9 30 20 57 24 60 4 3 10 19 14 35 3 17 15 50 25 75 9 25 28 77 40
115 26 79 48 111 64 95 6 -6 18 -36 28 -68 34 -114 71 -217 80 -220 4 -2 8
-13 8 -25 0 -19 123 -370 209 -597 52 -136 75 -210 68 -217 -4 -4 -117 -6
-250 -4 -133 1 -254 0 -268 -4 -20 -5 -29 -16 -38 -48 -16 -55 -54 -161 -96
-267 -19 -47 -37 -97 -41 -112 l-6 -28 436 0 436 0 9 -22 c21 -51 127 -345
187 -513 34 -99 82 -235 106 -302 l43 -123 248 0 c242 0 247 0 237 19 -15 29
-34 75 -35 86 -2 20 -28 90 -36 100 -5 5 -9 15 -9 23 0 7 -11 42 -25 77 -14
35 -28 72 -30 82 -2 10 -20 61 -40 113 -20 52 -37 102 -39 110 -2 8 -14 42
-26 75 -12 33 -44 123 -71 200 -27 77 -52 149 -57 160 -11 25 -41 115 -46 136
-2 8 -12 33 -21 55 -9 21 -18 47 -20 58 -3 10 -9 24 -15 32 -7 7 -9 18 -6 23
4 5 2 12 -3 15 -5 3 -16 29 -25 58 -9 29 -20 60 -23 68 -3 8 -7 20 -9 25 -10
38 -98 283 -110 306 -8 16 -12 29 -9 29 3 0 -1 14 -10 30 -9 17 -13 30 -10 30
3 0 1 9 -5 21 -6 11 -13 28 -15 37 -2 9 -16 49 -30 87 -14 39 -41 115 -60 170
-78 228 -97 281 -107 293 -6 6 -8 12 -4 12 5 0 -32 110 -54 155 -5 11 -14 36
-19 55 -6 19 -19 60 -30 90 -11 30 -41 116 -66 190 -26 74 -52 141 -57 148 -8
9 -79 12 -295 12 -218 0 -285 -3 -288 -12z m-513 -1550 c-9 -9 -12 -7 -12 12
0 19 3 21 12 12 9 -9 9 -15 0 -24z"/>
<path d="M16855 2520 l0 -1591 920 3 920 3 78 28 c43 15 84 27 91 27 7 0 19 6
25 14 7 8 23 17 36 20 14 4 41 18 62 31 21 14 46 31 57 38 77 50 175 151 216
223 17 29 37 57 45 64 8 7 15 17 15 23 0 5 11 33 25 61 35 73 54 155 66 281
15 160 6 1596 -10 1650 -7 22 -14 53 -17 70 -2 16 -9 34 -14 39 -6 6 -10 17
-10 25 0 26 -53 125 -108 201 -151 208 -332 327 -566 369 -40 7 -355 11 -945
11 l-886 0 0 -1590z m1665 1127 c131 -2 137 -3 200 -35 112 -57 182 -141 224
-268 15 -46 16 -125 14 -850 l-3 -799 -32 -65 c-41 -84 -120 -163 -203 -203
-61 -29 -75 -32 -220 -39 -195 -9 -1166 -7 -1183 4 -17 10 -23 514 -17 1473
l5 779 23 6 c21 5 879 3 1192 -3z"/>
<path d="M8650 3223 c0 -5 0 -356 0 -781 0 -663 2 -785 16 -850 34 -165 109
-304 228 -423 44 -43 83 -79 87 -79 4 0 30 -15 56 -32 59 -41 128 -73 213
-101 63 -21 78 -22 610 -22 l545 0 78 39 c124 61 209 156 246 273 19 60 20 94
21 1023 l0 960 -225 0 -225 0 0 -919 0 -920 -87 -3 c-49 -3 -252 -4 -453 -4
l-365 1 -70 34 c-83 41 -150 106 -190 186 l-30 60 -2 780 -3 780 -225 3 c-124
1 -225 -1 -225 -5z"/>
<path d="M11805 3215 c-33 -7 -83 -22 -111 -32 -147 -57 -300 -214 -365 -374
-27 -67 -28 -117 -32 -1132 l-2 -747 230 0 230 0 0 863 0 862 30 38 c59 74 75
77 393 77 l282 0 0 230 0 230 -297 -1 c-207 0 -316 -5 -358 -14z"/>
<path d="M13525 3223 c-63 -8 -227 -67 -286 -102 -188 -114 -320 -284 -386
-496 -16 -55 -18 -102 -18 -550 l0 -490 28 -80 c96 -272 286 -456 567 -548 62
-21 84 -22 415 -22 344 0 350 0 348 20 -1 11 -3 112 -3 225 l-1 205 -312 0
-312 0 -59 30 c-73 37 -144 100 -171 151 -11 22 -24 42 -28 45 -5 3 -8 9 -7
13 1 3 -4 30 -10 60 -7 35 -10 182 -8 432 l3 379 32 66 c49 100 118 163 210
193 45 15 105 17 494 16 337 0 445 -3 451 -13 5 -6 7 -420 5 -919 l-4 -908
235 0 234 0 -6 23 c-3 12 -6 529 -6 1150 l0 1127 -687 -1 c-379 -1 -701 -4
-718 -6z"/>
<path d="M19958 3223 c-1 -5 -2 -522 -2 -1150 l-1 -1143 234 0 c208 0 232 2
227 16 -3 9 -6 526 -6 1150 l0 1134 -225 0 c-124 0 -226 -3 -227 -7z"/>
<path d="M21615 3220 c-279 -55 -508 -236 -616 -490 -58 -136 -58 -144 -60
-634 -2 -518 1 -548 76 -697 121 -245 321 -400 590 -459 22 -5 187 -9 368 -10
l327 0 0 225 c0 173 -3 225 -12 225 -7 1 -146 2 -308 4 -313 4 -336 7 -416 57
-52 32 -118 102 -136 145 -42 99 -43 107 -43 494 0 368 0 376 24 447 20 61 33
83 86 137 54 55 73 68 129 85 62 19 93 20 474 21 224 1 424 1 445 1 l37 -1 0
-920 0 -920 230 0 231 0 -2 1150 -1 1150 -691 -1 c-381 -1 -710 -5 -732 -9z"/>
<path d="M24070 3214 c-92 -24 -215 -90 -282 -152 -75 -70 -151 -182 -180
-271 -23 -66 -23 -68 -28 -964 l-5 -897 227 0 227 0 3 868 3 867 31 31 c71 74
69 74 371 74 149 0 278 3 287 6 14 5 16 35 16 230 l0 224 -307 -1 c-234 0
-321 -4 -363 -15z m-400 -384 c0 -5 -5 -10 -11 -10 -5 0 -7 5 -4 10 3 6 8 10
11 10 2 0 4 -4 4 -10z"/>
<path d="M25040 3222 c0 -4 4 -12 9 -17 9 -11 111 -274 222 -575 37 -102 116
-311 174 -465 59 -154 156 -412 216 -574 60 -161 115 -303 121 -315 7 -11 13
-27 14 -35 5 -27 68 -181 74 -181 4 0 8 -23 9 -51 1 -52 -7 -78 -119 -369 -87
-224 -208 -544 -215 -567 l-6 -23 250 0 250 0 10 33 c11 36 115 316 135 362 7
17 23 59 36 95 12 36 28 79 36 95 19 42 94 240 94 248 0 4 8 26 19 50 27 62
97 246 111 292 7 22 16 45 20 50 3 6 15 33 25 60 10 28 38 102 62 165 25 63
47 126 50 140 2 14 10 32 17 40 8 8 16 26 19 40 3 14 22 66 41 115 20 50 48
122 63 160 14 39 32 84 39 100 22 52 52 138 64 183 6 23 15 42 19 42 5 0 12
17 16 38 4 20 10 42 14 47 5 6 16 33 26 60 10 28 22 55 25 60 4 6 13 32 19 60
7 27 17 52 22 56 5 3 12 19 15 35 3 16 12 36 20 45 8 8 14 23 14 32 0 9 11 41
25 71 14 30 25 63 25 73 0 11 4 23 9 28 4 6 16 33 26 60 10 28 22 55 26 60 7
10 35 97 49 153 l8 32 -246 -2 -246 -3 -143 -380 c-79 -209 -161 -425 -182
-480 -67 -171 -238 -627 -256 -682 -9 -31 -23 -53 -31 -53 -12 0 -46 59 -49
85 0 6 -4 15 -7 21 -4 6 -14 33 -23 60 -9 27 -19 56 -22 64 -3 8 -7 20 -9 25
-5 20 -66 181 -95 250 -4 11 -15 40 -23 65 -30 90 -104 298 -123 346 -39 95
-81 210 -102 272 -12 34 -25 70 -30 80 -6 9 -34 87 -64 172 l-55 155 -246 3
c-135 1 -246 -1 -246 -6z"/>
</g>
</svg>
